<?xml version="1.0" encoding="UTF-8"?>
<svg id="Capa_2" data-name="Capa 2" xmlns="http://www.w3.org/2000/svg" viewBox="0 0 690.3 256.21">
  <defs>
    <style>
      .cls-1 {
        fill: #222221;
      }
    </style>
  </defs>
  <g id="Capa_1-2" data-name="Capa 1">
    <g>
      <path class="cls-1" d="M590.48,160v27.7c0,9.48,7.12,16.77,16.38,16.77h38.82v5.1h-55.2v14.21c0,21.14,10.68,31.34,22.08,31.34h46.65c17.81,0,30.98-13.12,30.98-31.34v-24.42c0-9.48-7.12-16.76-16.38-16.76h-38.82v-6.2h48.08v-45.56h-55.91c-22.08,0-36.68,12.03-36.68,29.16ZM212.62,124.64l-.36-45.56h-37.39v-5.83h32.05v-21.87h-32.05v-5.83h37.75V0h-80.49v124.64h80.49ZM329.79,176.4h8.9v12.39h-14.25v-6.92c0-2.92,2.49-5.47,5.34-5.47ZM280.28,161.45v94.03h44.16v-21.14h14.25v21.14h44.52v-124.64h-71.58c-17.09,0-31.34,13.48-31.34,30.61ZM587.99,230.7v-99.13h-73.01c-14.96,0-26.71,11.3-26.71,25.51v99.13h72.65c14.96,0,27.07-11.66,27.07-25.51ZM536.35,177.13h8.9v28.06c0,2.92-2.49,5.47-5.34,5.47h-8.9v-28.06c0-2.92,2.49-5.47,5.34-5.47ZM428.79,209.93v-33.53h8.9c2.85,0,5.34,2.55,5.34,5.47v22.6c0,2.92-2.49,5.47-5.34,5.47h-8.9ZM485.78,229.97v-73.62c0-13.85-12.11-25.51-27.07-25.51h-72.65v124.64h72.65c14.96,0,27.07-11.66,27.07-25.51ZM277.79,255.49v-63.78h-25.64v-60.86h-42.74v124.64h68.38ZM206.92,255.49v-63.78h-32.05v-60.86h-42.74v124.64h74.79ZM690.3,124.83l-.36-45.56h-34.55v-5.83h29.2v-21.87h-29.2v-5.83h34.9v-22.23c0-13.48-9.62-22.96-22.79-22.96l-61.71-.18v124.28l84.5.18ZM212.62,124.64l-.36-45.56h-37.39v-5.83h32.05v-21.87h-32.05v-5.83h37.75V0h-80.49v124.64h80.49ZM402.8,60.5v2.92c27.42,0,29.92-19.32,29.92-30.25,0-16.77-6.05-33.17-43.45-33.17h-57.69v124.64h52.71c42.38,0,51.64-11.3,51.64-34.99s-15.67-29.89-33.12-29.16ZM374.3,45.92h11.75c2.14,0,3.56,1.46,3.56,2.92,0,1.82-1.42,3.28-3.56,3.28h-11.75v-6.2ZM374.3,76.54h11.75c2.14,0,3.56,1.46,3.56,3.28s-1.42,3.28-3.56,3.28h-11.75v-6.56ZM592.26,125.01h-42.74v-61.59h-10.33V.36h64.11v63.05h-11.04v61.59ZM252.15,124.64l.36-31.34,6.05,31.34h20.3l7.84-32.44-.71,32.44h42.74V0h-50.22l-6.77,31.71-8.19-31.71h-48.44v124.64h37.04ZM536.7,99.5V.36h-73.01c-14.96,0-26.71,11.3-26.71,25.51v99.13h72.65c14.96,0,27.07-11.66,27.07-25.51ZM485.06,45.92h8.9v28.06c0,2.92-2.49,5.47-5.34,5.47h-8.9v-28.06c0-2.92,2.49-5.47,5.34-5.47Z"/>
      <g>
        <path class="cls-1" d="M0,107.11v48.91c0,4.19,3.82,7.58,8.54,7.58h26.8v-64.07H8.54c-4.72,0-8.54,3.39-8.54,7.58Z"/>
        <path class="cls-1" d="M127.22,0c-28.4,32.42-67.14,80.53-85.59,99.63l-.29,63.64c11.81,11.66,60.33,62.26,85.88,92.21V0Z"/>
      </g>
    </g>
  </g>
</svg>